# xmcd CD database file
#
# Track frame offsets:
#	225
#	12571
#	26346
#	43646
#	58082
#	72553
#	83022
#	97566
#	109997
#	128350
#	146015
#	159705
#	174772
#	192905
#
# Disc length: 2748 seconds
#
# Revision: 1
# Processed by: cddbd v1.5.1PL0 Copyright (c) Steve Scherf et al.
# Submitted via: CDex 1.51
#
DISCID=b10ab90e
DTITLE=Jonny Hill - Jonny Hill - Vol. 02
DYEAR=1900
DGENRE=Country
TTITLE0=Bist du einsam heut Nacht (Are you lonesome tonight)
TTITLE1=Der Junge mit der Mundharmonika
TTITLE2=Die Zeit wischt die Schminke aus jedem Gesicht
TTITLE3=Etwas Liebe am Abend
TTITLE4=In dem kleinen Haus am See (Blanket on the ground)
TTITLE5=Glücklich sein mit dir allein
TTITLE6=Wenn ich dich verliere (I almost lost my mind)
TTITLE7=Erinnerung an Tom Dooley
TTITLE8=Wann wird's mal wieder richtig Sommer (City of New Orleans) 
TTITLE9=Vergiss deine Träume
TTITLE10=Carolyn
TTITLE11=Unerfüllte Träume (My exclusive dreams)
TTITLE12=Bis der letzte Fluss versiegt (Till the rivers all run dry)
TTITLE13=Ich wollte dir noch so viel sagen
EXTD=
EXTT0=
EXTT1=
EXTT2=
EXTT3=
EXTT4=
EXTT5=
EXTT6=
EXTT7=
EXTT8=
EXTT9=
EXTT10=
EXTT11=
EXTT12=
EXTT13=
PLAYORDER=
